<svg id="visual" viewBox="0 0 675 900" width="675" height="900" xmlns="http://www.w3.org/2000/svg" xmlns:xlink="http://www.w3.org/1999/xlink" version="1.1"><rect x="0" y="0" width="675" height="900" fill="#BCBDB4"></rect><defs><linearGradient id="grad1_0" x1="0%" y1="100%" x2="100%" y2="0%"><stop offset="30%" stop-color="#bcbdb4" stop-opacity="1"></stop><stop offset="70%" stop-color="#bcbdb4" stop-opacity="1"></stop></linearGradient></defs><defs><linearGradient id="grad2_0" x1="0%" y1="100%" x2="100%" y2="0%"><stop offset="30%" stop-color="#bcbdb4" stop-opacity="1"></stop><stop offset="70%" stop-color="#bcbdb4" stop-opacity="1"></stop></linearGradient></defs><g transform="translate(675, 900)"><path d="M-337.5 0C-329.3 -15.2 -321.1 -30.4 -316.7 -45.5C-312.4 -60.7 -312 -75.8 -309.9 -91C-307.8 -106.2 -304 -121.3 -300.2 -137.1C-296.3 -152.9 -292.3 -169.2 -283.9 -182.5C-275.5 -195.7 -262.6 -205.7 -251.7 -218.1C-240.7 -230.4 -231.6 -245 -214.8 -247.9C-198 -250.7 -173.6 -241.8 -160.6 -249.9C-147.6 -257.9 -146 -283 -137.1 -300.2C-128.1 -317.3 -111.8 -326.6 -94.4 -321.4C-77 -316.3 -58.6 -296.7 -42.7 -296.9C-26.8 -297.2 -13.4 -317.4 0 -337.5L0 0Z" fill="#000000"></path></g><g transform="translate(0, 0)"><path d="M337.5 0C309.9 11.7 282.4 23.3 287 41.3C291.7 59.2 328.7 83.5 323.8 95.1C319 106.7 272.4 105.6 262 119.6C251.6 133.7 277.4 162.7 275.1 176.8C272.8 190.8 242.5 189.8 223.7 193.8C204.9 197.9 197.7 206.9 192.5 222.2C187.4 237.5 184.3 259 174.1 270.9C163.9 282.8 146.5 285 130.4 285.6C114.4 286.3 99.6 285.4 86.5 294.6C73.4 303.7 61.8 322.8 47.7 331.6C33.5 340.4 16.8 339 0 337.5L0 0Z" fill="#000000"></path></g></svg>